<svg class="caldeira-vertical" width="87" height="83" viewBox="0 0 87 83" fill="none" xmlns="http://www.w3.org/2000/svg"><path d="M12.071 37.17l-3.395 8.967h1.66l2.338-6.208 1.057 2.835h-1.132l-.679 1.457h2.339l.754 1.916h1.66l-3.395-8.967h-1.207zm-.453 31.805h3.923v-1.456h-3.923v-2.146h4.225v-1.456h-5.809v8.966h5.96v-1.456h-4.376v-2.452zM28.367 37.17h-1.51v8.967h5.508V44.68h-3.998v-7.51zm1.886 26.747h-1.584v8.966h1.584v-8.966zm17.805-22.225c0 .46-.076.843-.227 1.226-.15.383-.377.69-.603.996-.227.307-.528.46-.83.613-.302.154-.68.23-.981.23h-.98v-6.054h.98c.377 0 .679.076.98.23.303.153.604.383.83.613.227.306.453.613.604.996.151.306.227.69.227 1.15zm.301-3.22a4.276 4.276 0 00-1.358-.919c-.528-.23-1.056-.306-1.66-.306h-2.565v8.966h2.566c.603 0 1.131-.153 1.66-.306.527-.23.98-.537 1.357-.92s.68-.843.906-1.456c.226-.537.301-1.15.301-1.763s-.075-1.226-.301-1.763c-.227-.69-.529-1.15-.906-1.532zm-.603 30.35c.226-.23.452-.46.679-.767.226-.383.301-.766.301-1.38 0-.382-.075-.69-.226-1.072a3.403 3.403 0 00-.603-.843 2.712 2.712 0 00-.906-.613c-.377-.154-.679-.23-1.056-.23H42.55v8.966h1.585v-7.51h1.886c.15 0 .301 0 .452.076.151.077.302.154.377.307.076.077.227.23.227.383.075.154.075.307.075.537 0 .153 0 .383-.075.536-.076.153-.151.307-.302.383-.075.077-.226.23-.377.307-.151.076-.302.076-.453.076h-.15l-.529 1.227 2.113 3.755h1.81l-2.112-3.679c.302-.153.528-.23.679-.46zm-35.61-51.119c.378.384.83.767 1.358.997.529.23 1.057.383 1.585.383.452 0 .905-.077 1.358-.23.452-.153.83-.383 1.131-.69.302-.306.604-.613.83-.996.227-.383.377-.766.528-1.226l.076-.307h-1.66l-.075.153c-.076.23-.151.46-.302.69-.151.23-.302.383-.453.537-.15.153-.377.306-.679.383a2.677 2.677 0 01-.83.153c-.302 0-.603-.076-.98-.23a3.354 3.354 0 01-.83-.613c-.227-.306-.453-.613-.604-.996a3.221 3.221 0 01-.226-1.226c0-.46.075-.843.226-1.226.151-.384.377-.69.604-.997.226-.306.528-.46.83-.613a2.06 2.06 0 01.98-.23c.302 0 .528.077.755.153.226.077.452.23.603.384a3.3 3.3 0 01.453.536c.15.23.226.46.302.69l.075.23h1.66v-.384c-.151-.46-.302-.843-.528-1.226-.226-.383-.528-.69-.83-.996a3.16 3.16 0 00-1.056-.69c-.377-.153-.83-.23-1.358-.23-.528 0-1.056.154-1.585.384-.528.23-.98.536-1.358.996-.377.383-.679.92-.905 1.456a4.608 4.608 0 00-.377 1.763c0 .613.15 1.226.377 1.762.226.537.528 1.073.905 1.456zm59.45 48.973l1.056 2.835H71.52l-.678 1.457h2.414l.679 1.992h1.66l-3.32-8.966h-1.283l-3.395 8.966h1.66l2.339-6.284z" fill="#fff"></path><path d="M1.66 28.97h54.998v52.267H1.66V28.97zm56.733-1.686H0V83h58.318V27.284h.075z" fill="#fff"></path><path d="M28.14 27.283H1.66V1.686h26.48v25.597zM0 28.97h29.8V0H0v28.97zm84.874 52.267h-26.48v-25.52h26.48v25.52zm-28.216 1.686h29.8v-28.97h-29.8v28.97z" fill="#fff"></path></svg>